<svg width="34" height="34" viewBox="0 0 34 34" fill="none" xmlns="http://www.w3.org/2000/svg">
<g clip-path="url(#clip0_19_378)">
<path d="M11.3347 17C11.3347 13.8705 13.871 11.3329 17.0005 11.3329C20.13 11.3329 22.6676 13.8705 22.6676 17C22.6676 20.1295 20.13 22.6671 17.0005 22.6671C13.871 22.6671 11.3347 20.1295 11.3347 17ZM8.27119 17C8.27119 21.8212 12.1793 25.7293 17.0005 25.7293C21.8217 25.7293 25.7298 21.8212 25.7298 17C25.7298 12.1788 21.8217 8.2707 17.0005 8.2707C12.1793 8.2707 8.27119 12.1788 8.27119 17ZM24.0354 7.92458C24.0352 8.32806 24.1547 8.72252 24.3787 9.05808C24.6027 9.39365 24.9212 9.65525 25.2939 9.8098C25.6666 9.96435 26.0768 10.0049 26.4725 9.92636C26.8683 9.84781 27.2319 9.65366 27.5173 9.36847C27.8027 9.08329 27.9971 8.71987 28.076 8.32418C28.1549 7.92849 28.1146 7.5183 27.9604 7.14548C27.8061 6.77266 27.5448 6.45395 27.2094 6.22966C26.874 6.00536 26.4797 5.88556 26.0762 5.8854H26.0754C25.5345 5.88565 25.0159 6.10055 24.6334 6.48289C24.2509 6.86524 24.0358 7.38376 24.0354 7.92458ZM10.1325 30.8376C8.47506 30.7621 7.57419 30.486 6.97552 30.2528C6.18182 29.9438 5.61552 29.5758 5.02011 28.9812C4.4247 28.3866 4.05614 27.8208 3.74851 27.0271C3.51514 26.4287 3.23906 25.5276 3.16371 23.8702C3.0813 22.0782 3.06484 21.54 3.06484 17.0001C3.06484 12.4603 3.08266 11.9235 3.16371 10.1301C3.23919 8.47266 3.51731 7.5733 3.74851 6.97313C4.0575 6.17943 4.42552 5.61313 5.02011 5.01772C5.6147 4.42231 6.18046 4.05375 6.97552 3.74612C7.57392 3.51274 8.47506 3.23666 10.1325 3.16132C11.9244 3.0789 12.4627 3.06245 17.0005 3.06245C21.5383 3.06245 22.0771 3.08026 23.8705 3.16132C25.528 3.2368 26.4273 3.51492 27.0275 3.74612C27.8212 4.05375 28.3875 4.42313 28.9829 5.01772C29.5783 5.61231 29.9455 6.17943 30.2545 6.97313C30.4879 7.57153 30.764 8.47266 30.8393 10.1301C30.9217 11.9235 30.9382 12.4603 30.9382 17.0001C30.9382 21.54 30.9217 22.0767 30.8393 23.8702C30.7638 25.5276 30.4864 26.4285 30.2545 27.0271C29.9455 27.8208 29.5775 28.3871 28.9829 28.9812C28.3883 29.5752 27.8212 29.9438 27.0275 30.2528C26.4291 30.4862 25.528 30.7622 23.8705 30.8376C22.0786 30.92 21.5403 30.9365 17.0005 30.9365C12.4607 30.9365 11.9239 30.92 10.1325 30.8376ZM9.99173 0.102952C8.18198 0.185368 6.94533 0.472328 5.86535 0.892568C4.74689 1.32654 3.80006 1.90876 2.8539 2.85342C1.90775 3.79807 1.32703 4.7464 0.893056 5.86486C0.472816 6.94552 0.185856 8.18149 0.10344 9.99124C0.0196643 11.8038 0.000488281 12.3833 0.000488281 17C0.000488281 21.6167 0.0196643 22.1962 0.10344 24.0088C0.185856 25.8186 0.472816 27.0545 0.893056 28.1351C1.32703 29.2529 1.90789 30.2023 2.8539 31.1466C3.79992 32.0908 4.74689 32.6722 5.86535 33.1074C6.94737 33.5277 8.18198 33.8146 9.99173 33.897C11.8053 33.9795 12.3838 34 17.0005 34C21.6171 34 22.1966 33.9808 24.0093 33.897C25.8191 33.8146 27.055 33.5277 28.1356 33.1074C29.2534 32.6722 30.2009 32.0912 31.1471 31.1466C32.0932 30.2019 32.6727 29.2529 33.1079 28.1351C33.5282 27.0545 33.8165 25.8185 33.8975 24.0088C33.98 22.1948 33.9991 21.6167 33.9991 17C33.9991 12.3833 33.98 11.8038 33.8975 9.99124C33.8151 8.18135 33.5282 6.94484 33.1079 5.86486C32.6727 4.74708 32.0917 3.79957 31.1471 2.85342C30.2024 1.90726 29.2534 1.32654 28.137 0.892568C27.055 0.472328 25.819 0.184008 24.0106 0.102952C22.198 0.020536 21.6185 0 17.0019 0C12.3852 0 11.8053 0.019176 9.99173 0.102952Z" fill="url(#paint0_radial_19_378)"/>
<path d="M11.3347 17C11.3347 13.8705 13.871 11.3329 17.0005 11.3329C20.13 11.3329 22.6676 13.8705 22.6676 17C22.6676 20.1295 20.13 22.6671 17.0005 22.6671C13.871 22.6671 11.3347 20.1295 11.3347 17ZM8.27119 17C8.27119 21.8212 12.1793 25.7293 17.0005 25.7293C21.8217 25.7293 25.7298 21.8212 25.7298 17C25.7298 12.1788 21.8217 8.2707 17.0005 8.2707C12.1793 8.2707 8.27119 12.1788 8.27119 17ZM24.0354 7.92458C24.0352 8.32806 24.1547 8.72252 24.3787 9.05808C24.6027 9.39365 24.9212 9.65525 25.2939 9.8098C25.6666 9.96435 26.0768 10.0049 26.4725 9.92636C26.8683 9.84781 27.2319 9.65366 27.5173 9.36847C27.8027 9.08329 27.9971 8.71987 28.076 8.32418C28.1549 7.92849 28.1146 7.5183 27.9604 7.14548C27.8061 6.77266 27.5448 6.45395 27.2094 6.22966C26.874 6.00536 26.4797 5.88556 26.0762 5.8854H26.0754C25.5345 5.88565 25.0159 6.10055 24.6334 6.48289C24.2509 6.86524 24.0358 7.38376 24.0354 7.92458ZM10.1325 30.8376C8.47506 30.7621 7.57419 30.486 6.97552 30.2528C6.18182 29.9438 5.61552 29.5758 5.02011 28.9812C4.4247 28.3866 4.05614 27.8208 3.74851 27.0271C3.51514 26.4287 3.23906 25.5276 3.16371 23.8702C3.0813 22.0782 3.06484 21.54 3.06484 17.0001C3.06484 12.4603 3.08266 11.9235 3.16371 10.1301C3.23919 8.47266 3.51731 7.5733 3.74851 6.97313C4.0575 6.17943 4.42552 5.61313 5.02011 5.01772C5.6147 4.42231 6.18046 4.05375 6.97552 3.74612C7.57392 3.51274 8.47506 3.23666 10.1325 3.16132C11.9244 3.0789 12.4627 3.06245 17.0005 3.06245C21.5383 3.06245 22.0771 3.08026 23.8705 3.16132C25.528 3.2368 26.4273 3.51492 27.0275 3.74612C27.8212 4.05375 28.3875 4.42313 28.9829 5.01772C29.5783 5.61231 29.9455 6.17943 30.2545 6.97313C30.4879 7.57153 30.764 8.47266 30.8393 10.1301C30.9217 11.9235 30.9382 12.4603 30.9382 17.0001C30.9382 21.54 30.9217 22.0767 30.8393 23.8702C30.7638 25.5276 30.4864 26.4285 30.2545 27.0271C29.9455 27.8208 29.5775 28.3871 28.9829 28.9812C28.3883 29.5752 27.8212 29.9438 27.0275 30.2528C26.4291 30.4862 25.528 30.7622 23.8705 30.8376C22.0786 30.92 21.5403 30.9365 17.0005 30.9365C12.4607 30.9365 11.9239 30.92 10.1325 30.8376ZM9.99173 0.102952C8.18198 0.185368 6.94533 0.472328 5.86535 0.892568C4.74689 1.32654 3.80006 1.90876 2.8539 2.85342C1.90775 3.79807 1.32703 4.7464 0.893056 5.86486C0.472816 6.94552 0.185856 8.18149 0.10344 9.99124C0.0196643 11.8038 0.000488281 12.3833 0.000488281 17C0.000488281 21.6167 0.0196643 22.1962 0.10344 24.0088C0.185856 25.8186 0.472816 27.0545 0.893056 28.1351C1.32703 29.2529 1.90789 30.2023 2.8539 31.1466C3.79992 32.0908 4.74689 32.6722 5.86535 33.1074C6.94737 33.5277 8.18198 33.8146 9.99173 33.897C11.8053 33.9795 12.3838 34 17.0005 34C21.6171 34 22.1966 33.9808 24.0093 33.897C25.8191 33.8146 27.055 33.5277 28.1356 33.1074C29.2534 32.6722 30.2009 32.0912 31.1471 31.1466C32.0932 30.2019 32.6727 29.2529 33.1079 28.1351C33.5282 27.0545 33.8165 25.8185 33.8975 24.0088C33.98 22.1948 33.9991 21.6167 33.9991 17C33.9991 12.3833 33.98 11.8038 33.8975 9.99124C33.8151 8.18135 33.5282 6.94484 33.1079 5.86486C32.6727 4.74708 32.0917 3.79957 31.1471 2.85342C30.2024 1.90726 29.2534 1.32654 28.137 0.892568C27.055 0.472328 25.819 0.184008 24.0106 0.102952C22.198 0.020536 21.6185 0 17.0019 0C12.3852 0 11.8053 0.019176 9.99173 0.102952Z" fill="url(#paint1_radial_19_378)"/>
</g>
<defs>
<radialGradient id="paint0_radial_19_378" cx="0" cy="0" r="1" gradientUnits="userSpaceOnUse" gradientTransform="translate(4.51759 34.1606) scale(44.3841 44.3841)">
<stop offset="0.09" stop-color="#FA8F21"/>
<stop offset="0.78" stop-color="#D82D7E"/>
</radialGradient>
<radialGradient id="paint1_radial_19_378" cx="0" cy="0" r="1" gradientUnits="userSpaceOnUse" gradientTransform="translate(20.62 35.6838) scale(34.9808 34.9808)">
<stop offset="0.64" stop-color="#8C3AAA" stop-opacity="0"/>
<stop offset="1" stop-color="#8C3AAA"/>
</radialGradient>
<clipPath id="clip0_19_378">
<rect width="34" height="34" fill="white"/>
</clipPath>
</defs>
</svg>
