<svg width="36" height="36" viewBox="0 0 36 36" fill="none" xmlns="http://www.w3.org/2000/svg">
<g clip-path="url(#clip0_19_383)">
<path d="M12.7604 0.891113H23.2575C32.8456 0.891113 35.1089 3.1723 35.1089 12.7604V23.2575C35.1089 32.8456 32.8277 35.1089 23.2396 35.1089H12.7426C3.15448 35.1089 0.891113 32.8277 0.891113 23.2396V12.7426C0.891113 3.1723 3.1723 0.891113 12.7604 0.891113Z" fill="#5181B8"/>
<mask id="mask0_19_383" style="mask-type:luminance" maskUnits="userSpaceOnUse" x="0" y="0" width="36" height="36">
<path d="M12.7604 0.891113H23.2575C32.8456 0.891113 35.1089 3.1723 35.1089 12.7604V23.2575C35.1089 32.8456 32.8277 35.1089 23.2396 35.1089H12.7426C3.15448 35.1089 0.891113 32.8277 0.891113 23.2396V12.7426C0.891113 3.1723 3.1723 0.891113 12.7604 0.891113Z" fill="white"/>
</mask>
<g mask="url(#mask0_19_383)">
<path d="M0 0H36V36H0V0Z" fill="#5181B8"/>
</g>
<path fill-rule="evenodd" clip-rule="evenodd" d="M28.9071 12.6711C29.0675 12.1365 28.9071 11.7622 28.1586 11.7622H25.6635C25.022 11.7622 24.7368 12.1008 24.5764 12.4751C24.5764 12.4751 23.3111 15.5761 21.5111 17.5721C20.923 18.1602 20.6734 18.3384 20.3527 18.3384C20.1923 18.3384 19.9606 18.1602 19.9606 17.6256V12.6711C19.9606 12.0295 19.7824 11.7622 19.2477 11.7622H15.3269C14.9348 11.7622 14.6853 12.0652 14.6853 12.3325C14.6853 12.9384 15.5764 13.081 15.6833 14.7563V18.4276C15.6833 19.2295 15.5408 19.3721 15.22 19.3721C14.3824 19.3721 12.315 16.2711 11.1031 12.7068C10.8536 12.0474 10.622 11.7622 9.98038 11.7622H7.48533C6.77246 11.7622 6.62988 12.1008 6.62988 12.4751C6.62988 13.1345 7.46751 16.4137 10.5685 20.7444C12.6358 23.7028 15.5408 25.3068 18.1784 25.3068C19.7645 25.3068 19.9606 24.9503 19.9606 24.3444V22.0988C19.9606 21.386 20.1032 21.2434 20.62 21.2434C20.9942 21.2434 21.618 21.4216 23.0972 22.8474C24.7903 24.5404 25.0754 25.3068 26.02 25.3068H28.515C29.2279 25.3068 29.5843 24.9503 29.3705 24.2553C29.1388 23.5602 28.3368 22.5444 27.2675 21.3325C26.6794 20.6375 25.8061 19.9068 25.5566 19.5325C25.1824 19.0513 25.2893 18.8375 25.5566 18.4276C25.5566 18.4097 28.6041 14.1325 28.9071 12.6711Z" fill="white"/>
</g>
<defs>
<clipPath id="clip0_19_383">
<rect width="36" height="36" fill="white"/>
</clipPath>
</defs>
</svg>
